<svg xmlns="http://www.w3.org/2000/svg" width="960" height="130" viewBox="0 0 960 130">
  <metadata><?xpacket begin="﻿" id="W5M0MpCehiHzreSzNTczkc9d"?>
<x:xmpmeta xmlns:x="adobe:ns:meta/" x:xmptk="Adobe XMP Core 5.6-c142 79.160924, 2017/07/13-01:06:39        ">
   <rdf:RDF xmlns:rdf="http://www.w3.org/1999/02/22-rdf-syntax-ns#">
      <rdf:Description rdf:about=""/>
   </rdf:RDF>
</x:xmpmeta>
                                                                                                    
                                                                                                    
                                                                                                    
                                                                                                    
                                                                                                    
                                                                                                    
                                                                                                    
                                                                                                    
                                                                                                    
                                                                                                    
                                                                                                    
                                                                                                    
                                                                                                    
                                                                                                    
                                                                                                    
                                                                                                    
                                                                                                    
                                                                                                    
                                                                                                    
                                                                                                    
                           
<?xpacket end="w"?></metadata>
<defs>
    <style>
      .cls-1 {
        fill: #677383;
      }

      .cls-1, .cls-2, .cls-3, .cls-4 {
        fill-rule: evenodd;
      }

      .cls-2 {
        fill: #546172;
      }

      .cls-3 {
        fill: #fff;
      }

      .cls-4 {
        fill: #20a847;
      }
    </style>
  </defs>
  <path class="cls-1" d="M435,135l-27-24-30-3-15,15-27,1-10-16-14,1-6,7L292,99l-23,12-22-4-14,4L208,89l-5-16-8,11L171,55,147,67,123,54,108,84,95,77l-9,9H69l-9,19-31,5,13,28Z"/>
  <path class="cls-2" d="M153,107l2-16-6-13V99l-2,10Z"/>
  <path class="cls-2" d="M408,111l-2,10,9,9h16Z"/>
  <path class="cls-2" d="M326,108l10,16h7l7,6H333Z"/>
  <path class="cls-2" d="M291,99l15,17-1,13-16-13,6-5Z"/>
  <path class="cls-2" d="M171,55l-1,17,5,9-9,3,14,22,2,24h44V117l7-6L208,90l-4-16-4,7-1,2-1,2Z"/>
  <path class="cls-2" d="M123,54l24,14-9,11,1,13-7-20Z"/>
  <path class="cls-2" d="M95,77l14,8,3,21-7,3V95Z"/>
  <path class="cls-2" d="M69,86l13,19-5,17,14,8-6-13,2-15Z"/>
  <path class="cls-2" d="M60,105l4,27H55Z"/>
  <path class="cls-3" d="M123,54l-9,19,10-7,11,7-2-7,6-3Z"/>
  <path class="cls-3" d="M171,55L150,65l14,2V79l4-6,5,5,1-6,10,13-2-10,8,1Z"/>
  <path class="cls-4" d="M455,131v-9l9-6V70h4v36l3,2V65h9V57h4V46h4V57h4v8h11V84h15V68h12v46h6V93h14V48h24V81l4-2V17h8V59h21v54h3V33h30v75h8V72h4V60l8-4V46h10v61l5,1V65h9V57h4V46h3V57h5v8h9v50h34V93h15V48h24V81l3-3V17h9V59h19v54h4V33h30v75h12V72h3V60l8-4V46h11V96l9,15v21ZM733,69H721V85H705v30h28V69Z"/>
  <path class="cls-3" d="M204,74l-3,17,21,10L208,89Z"/>
</svg>
