<svg id="favicon" xmlns="http://www.w3.org/2000/svg" width="64" height="64" viewBox="0 0 64 64">
  <defs>
    <style>
      .cls-1 {
        fill: #94ca48;
      }

      .cls-1, .cls-2, .cls-3, .cls-4, .cls-5 {
        fill-rule: evenodd;
      }

      .cls-2 {
        fill: #689e1d;
      }

      .cls-3 {
        fill: #ac6d12;
      }

      .cls-4 {
        fill: #824c06;
      }

      .cls-5 {
        fill: #efac37;
      }
    </style>
  </defs>
  <path class="cls-1" d="M9.343,12.9L50.3,10.63l1.142,20.386-40.96,2.27Z"/>
  <path id="Rectangle_1_copy" data-name="Rectangle 1 copy" class="cls-2" d="M18.676,15.377l35.864-2.86,1.391,18.46-35.864,2.86Z"/>
  <path id="Rounded_Rectangle_1" data-name="Rounded Rectangle 1" class="cls-3" d="M8.674,17.832H58.068a5.67,5.67,0,0,1,5.67,5.67V47.684a5.67,5.67,0,0,1-5.67,5.67H8.674A5.67,5.67,0,0,1,3,47.684V23.5A5.67,5.67,0,0,1,8.674,17.832Z"/>
  <path id="Rounded_Rectangle_2" data-name="Rounded Rectangle 2" class="cls-4" d="M2.21,29.93H16.465a2.21,2.21,0,0,1,2.21,2.21v9.1a2.21,2.21,0,0,1-2.21,2.21H2.21A2.21,2.21,0,0,1,0,41.238v-9.1A2.21,2.21,0,0,1,2.21,29.93Z"/>
  <path class="cls-5" d="M12.666,33.5a3.209,3.209,0,1,1-3.329,3.207A3.27,3.27,0,0,1,12.666,33.5Z"/>
</svg>
